<svg width="69" height="28" viewBox="0 0 69 28" fill="none" xmlns="http://www.w3.org/2000/svg">
<path opacity="0.8" d="M11.2732 1C11.9047 9.30305 12.6195 17.5995 13.2998 25.8984M12.3398 8.05078C9.10754 9.17278 5.15426 8.89873 1.86931 8.12423C1.63628 8.06929 0.484915 7.96392 1.27082 7.64683C3.86671 6.59945 7.18511 6.87693 9.89256 6.85116C13.9192 6.81282 17.975 6.77786 21.963 7.43873C23.4509 7.68529 24.9359 8.02679 26.3657 8.52206C26.6246 8.61173 27.6494 8.88754 27.853 9.23817C28.0398 9.55967 23.5039 10.2638 23.397 10.2787C19.2582 10.8539 15.1016 11.3021 10.9532 11.7966M15.9663 4.19487C15.9663 9.36904 16.2327 14.5241 16.7959 19.6676C17.0626 22.1025 17.3681 24.6336 17.9929 27M17.7796 14.3305C15.8247 14.6992 13.8386 15.1629 11.8421 15.1629C10.8836 15.1629 8.61802 15.0288 8.41715 13.7062C8.2167 12.3863 8.98177 11.3572 10.1474 10.8908C11.6839 10.276 13.3797 10.1229 15.0064 10.0278C18.6455 9.81501 22.3452 9.85422 25.9865 9.97268C28.812 10.0646 31.6067 10.3183 34.395 10.8051C35.7764 11.0463 37.3162 11.2895 38.6377 11.8211C40.2037 12.4511 35.7697 14.1064 35.5564 14.1959C28.1615 17.2975 20.0382 18.1864 12.1266 18.1864M20.2327 21.9322C20.1457 22.1681 20.0978 22.3624 20.0921 22.5228M20.0921 22.5228C20.0766 22.9574 20.3713 23.1424 21.0386 23.2297C21.6547 23.3104 22.1755 23.2797 22.603 22.7646C22.6136 22.7517 22.6241 22.7388 22.6344 22.7258M20.0921 22.5228C19.729 22.3973 19.4861 22.2048 19.4861 21.9138C19.4861 21.4899 19.4093 20.9571 19.7409 20.6346C20.2693 20.121 21.3475 20.3592 21.9749 20.4755C23.179 20.6987 23.3327 21.846 22.6344 22.7258M20.0921 22.5228C20.7854 22.7623 21.9173 22.7572 22.6344 22.7258M22.6344 22.7258C22.8891 22.7147 23.0915 22.7003 23.2033 22.6923L23.2192 22.6911C23.3344 22.6829 23.471 22.6664 23.6184 22.6403M23.6184 22.6403C23.8884 22.5924 24.195 22.5123 24.4743 22.3915M23.6184 22.6403C23.4558 22.0254 24.042 20.973 24.6058 20.9407C25.3402 20.8985 25.6724 21.2938 25.6724 22.0668C25.6724 22.4096 25.6096 22.6937 25.4723 22.8984M23.6184 22.6403C23.6331 22.6958 23.6539 22.7478 23.6814 22.7952C23.7878 22.9783 24.0658 23.041 24.3739 23.0462M24.4743 22.3915C24.9275 22.1957 25.3091 21.8932 25.3465 21.4487C25.4128 20.6619 24.6805 21.9243 24.6058 22.0668C24.5754 22.1249 24.5227 22.2469 24.4743 22.3915ZM24.4743 22.3915C24.403 22.6047 24.3412 22.867 24.3739 23.0462M24.3739 23.0462C24.3952 23.1631 24.4568 23.2446 24.5821 23.2542C25.0112 23.287 25.3002 23.155 25.4723 22.8984M24.3739 23.0462C24.7792 23.0531 25.2367 22.9604 25.4236 22.9115C25.4398 22.9072 25.4561 22.9029 25.4723 22.8984M25.4723 22.8984C26.9318 22.4996 28.4 21.358 29.21 20.0593C30.4678 18.0429 30.3816 15.0241 30.2233 12.7391C30.0304 9.95487 29.1851 7.2071 26.9287 5.48629C24.8051 3.86681 21.3558 2.68672 18.7039 3.27678C16.1816 3.83801 15.5569 7.20854 15.2493 9.39732C14.9757 11.3442 14.5817 14.5597 16.2152 16.0687C16.7295 16.5439 17.4582 16.5339 18.0995 16.5339M27.2724 21.2712C27.5471 21.7913 28.2405 24.3416 29.1864 23.4624C29.568 23.1075 29.8228 22.5685 29.8322 22.0424C29.8332 21.9882 29.8341 21.9396 29.8348 21.8962M29.8348 21.8962C29.8432 21.4115 29.8383 21.5818 29.8348 21.8962ZM29.8348 21.8962C29.8334 22.0225 29.8322 22.172 29.8322 22.3117C29.8322 22.6123 29.7286 23.0575 30.0456 23.2298C30.5412 23.4992 30.775 22.9872 31.0766 22.6177C31.4714 22.1342 31.8005 21.6143 32.075 21.0678M32.075 21.0678C32.9407 19.3443 33.2631 17.3563 33.3876 15.4077L33.388 15.4015C33.4651 14.1943 33.5583 12.7366 33.0202 11.613C32.8233 11.2017 32.1373 10.2708 31.5744 10.444C30.7682 10.692 30.6358 12.0574 30.567 12.7269C30.3656 14.6868 30.4322 16.8226 31.0529 18.7006C31.3163 19.4974 31.7306 20.2292 32.0484 21.0019C32.0574 21.0238 32.0663 21.0458 32.075 21.0678ZM32.075 21.0678C32.2391 21.4843 32.3502 21.9242 32.5639 22.3178C32.6349 22.4485 33.2074 23.3465 33.2217 23.291C33.2649 23.1235 33.2962 22.8749 33.3072 22.6095M33.3072 22.6095C33.3238 22.2056 33.2934 21.7631 33.1861 21.5099C33.0055 21.0835 32.3054 21.4206 32.5521 21.9812C32.6788 22.2691 32.9254 22.6744 33.3072 22.6095ZM33.3072 22.6095C33.3408 22.6038 33.3755 22.5944 33.4113 22.581C33.5885 22.5145 33.9044 21.8879 34.075 21.92C34.1634 21.9366 34.3744 22.9751 34.472 23.1319C34.644 23.4082 34.8178 23.3477 34.9994 23.1441C35.181 22.9404 35.3087 22.7341 35.3877 22.4835M35.3877 22.4835C35.4074 22.421 35.4241 22.3558 35.4379 22.2872C35.5082 21.9362 35.4171 21.7816 35.3845 22.2015C35.3782 22.2832 35.3793 22.3801 35.3877 22.4835ZM35.3877 22.4835C35.4381 23.0971 35.7501 23.9384 36.3326 23.1747C36.481 22.9802 36.7764 22.1484 36.7889 22.2015C36.8728 22.559 36.8895 22.8869 37.0911 23.1992C37.238 23.4267 37.5902 23.4165 37.7488 23.2175C37.882 23.0505 38.0502 22.7084 38.1876 22.3821M38.1876 22.3821C38.4004 21.8764 38.5392 21.4085 38.3592 21.6874C38.2467 21.8616 38.1939 22.1146 38.1876 22.3821ZM38.1876 22.3821C38.1772 22.8199 38.2912 23.2965 38.4718 23.5297C38.6633 23.777 38.8732 23.5828 39.0557 23.3314M39.0557 23.3314C39.3273 22.9572 39.5384 22.4561 39.5384 23.0951V23.1002C39.5384 23.4368 39.5384 23.7897 39.9413 23.8051C40.2485 23.8169 40.4562 23.7314 40.5457 23.4012C40.5556 23.3646 40.5639 23.328 40.5705 23.2915M39.0557 23.3314C39.1581 22.8569 39.3945 22.4186 39.9117 22.379C40.1332 22.3621 40.2986 22.431 40.4107 22.5519M39.0557 23.3314C39.0454 23.3789 39.0365 23.4267 39.0288 23.4746C38.9678 23.8523 38.9049 24.5082 39.2836 24.7293C39.8353 25.0514 40.3901 24.8366 40.8727 24.4139M40.5705 23.2915C40.6221 23.0051 40.5713 22.7252 40.4107 22.5519M40.5705 23.2915C40.5124 23.0462 40.4592 22.7996 40.4107 22.5519M40.5705 23.2915C40.6597 23.669 40.7604 24.0434 40.8727 24.4139M40.4107 22.5519C39.6933 18.8908 39.9986 14.9823 40.9842 11.4294C41.1353 10.8848 41.3002 10.1797 41.5946 9.6789C41.6453 9.59254 41.6641 9.56609 41.7368 9.62382C42.1323 9.93809 42.4202 10.8258 42.5901 11.2458C43.9465 14.5992 43.6863 18.4912 42.4475 21.8573M40.8727 24.4139C41.2265 24.1041 41.5416 23.6825 41.7881 23.2787M40.8727 24.4139C40.934 24.6161 40.9988 24.8172 41.0672 25.017C41.095 25.0982 41.5564 26.7284 41.8434 26.7001C42.2374 26.6614 42.5643 25.5435 42.6552 25.2496L42.6623 25.2268C42.7256 25.022 42.8166 24.7279 42.8981 24.3968M41.7881 23.2787C41.9822 22.961 42.1338 22.6543 42.2286 22.4219C42.3046 22.2355 42.3776 22.0472 42.4475 21.8573M41.7881 23.2787C41.8157 22.6986 41.9247 21.7198 42.4475 21.8573M41.7881 23.2787C41.7821 23.4047 41.78 23.5119 41.7782 23.5848C41.77 23.9354 41.7963 24.307 42.2108 24.3498C42.4272 24.3722 42.6597 24.3898 42.8981 24.3968M42.4475 21.8573C42.4867 21.8676 42.5283 21.8842 42.5723 21.9077C43.2761 22.2838 43.1234 23.4817 42.8981 24.3968M42.8981 24.3968C43.5148 24.4149 44.1715 24.362 44.6936 24.1356C45.1675 23.9302 45.381 23.5319 45.9262 23.4807C46.2883 23.4467 46.665 23.4746 47.0283 23.4746C48.3083 23.4746 49.5848 23.381 50.8681 23.3644C52.1808 23.3475 53.4761 23.0339 54.7908 23.0339C56.0392 23.0339 57.2815 22.9238 58.524 22.9238C59.7323 22.9238 60.9422 22.9413 62.1504 22.9238C63.1076 22.9098 64.0385 22.7034 65.0066 22.7034H67.0568C67.198 22.7034 67.4104 22.7381 67.5979 22.7375M67.5979 22.7375C67.8398 22.7368 68.0402 22.6775 67.9931 22.4096C67.9286 22.0436 67.6968 21.5828 67.6968 21.2284C67.6968 20.9181 67.5901 21.8423 67.5901 22.1526C67.5901 22.3478 67.5931 22.5428 67.5979 22.7375ZM67.5979 22.7375C67.6225 23.7198 67.6968 24.6961 67.6968 25.678" stroke="black" stroke-width="0.3" stroke-linecap="round"/>
</svg>
